<?xml version="1.0" encoding="utf-8"?>
<!-- Generator: Adobe Illustrator 22.1.0, SVG Export Plug-In . SVG Version: 6.00 Build 0)  -->
<svg version="1.1" id="Слой_1" xmlns="http://www.w3.org/2000/svg" xmlns:xlink="http://www.w3.org/1999/xlink" x="0px" y="0px"
	 viewBox="0 0 19 23" style="enable-background:new 0 0 19 23;" xml:space="preserve">
<style type="text/css">
	.st0{fill:#57AD56;}
	.st1{fill:#262626;}
</style>
<g id="basket">
	<g id="XMLID_1_">
		<g>
			<path class="st0" d="M17.5,8.4v10.3c0,1.4-1.1,2.5-2.5,2.5H4c-1.4,0-2.5-1.1-2.5-2.5V8.4h3v3.7c0,0.4,0.3,0.8,0.8,0.8
				c0.4,0,0.8-0.3,0.8-0.8V8.4h6.9v3.7c0,0.4,0.3,0.8,0.8,0.8c0.4,0,0.8-0.3,0.8-0.8V8.4H17.5z"/>
			<path class="st1" d="M14.4,8.4v3.7c0,0.4-0.3,0.8-0.8,0.8c-0.4,0-0.8-0.3-0.8-0.8V8.4H14.4z"/>
			<rect x="12.9" y="6.9" class="st1" width="1.5" height="1.5"/>
			<rect x="6" y="6.9" class="st1" width="6.9" height="1.5"/>
			<path class="st1" d="M6,8.4v3.7c0,0.4-0.3,0.8-0.8,0.8c-0.4,0-0.8-0.3-0.8-0.8V8.4H6z"/>
			<rect x="4.5" y="6.9" class="st1" width="1.5" height="1.5"/>
			<path class="st1" d="M12.9,5.9c0-1.9-1.6-3.5-3.5-3.5S6,4,6,5.9v1H4.5v-1c0-2.7,2.2-5,5-5s5,2.2,5,5v1h-1.5V5.9z"/>
			<path class="st1" d="M4,21.1h10.9c1.4,0,2.5-1.1,2.5-2.5V8.4h-3V6.9H19v11.8c0,2.2-1.8,4-4,4H4c-2.2,0-4-1.8-4-4V6.9h4.5v1.5h-3
				v10.3C1.5,20,2.6,21.1,4,21.1z"/>
		</g>
		<g>
		</g>
	</g>
</g>
</svg>
