<?xml version="1.0" encoding="utf-8"?>
<!-- Generator: Adobe Illustrator 22.1.0, SVG Export Plug-In . SVG Version: 6.00 Build 0)  -->
<svg version="1.1" id="katman_1" xmlns="http://www.w3.org/2000/svg" xmlns:xlink="http://www.w3.org/1999/xlink" x="0px" y="0px"
	 viewBox="0 0 1294.1 1294.1" style="enable-background:new 0 0 1294.1 1294.1;" xml:space="preserve">
<style type="text/css">
	.st0{fill:#142328;}
	.st1{fill:#06C167;}
	.st2{fill:#F6F0EA;}
</style>
<g id="Layer_2">
	<g id="Squircles">
		<path class="st0" d="M254.9,0h784.3c140.8,0,254.9,114.1,254.9,254.9v784.3c0,140.8-114.1,254.9-254.9,254.9H254.9
			C114.1,1294.1,0,1180,0,1039.2V254.9C-0.1,114.1,114.1,0,254.9,0z"/>
		<path class="st1" d="M620.2,867.2c0.4-37.1-29.3-67.6-66.4-68s-67.6,29.3-68,66.4s29.3,67.6,66.4,68c0.3,0,0.5,0,0.8,0
			c36.6,0.5,66.7-28.8,67.2-65.4C620.2,867.8,620.2,867.5,620.2,867.2 M675.1,758.6v217.9h-55.9v-19.6
			c-19.9,16.1-44.8,24.8-70.5,24.5c-63.1,1.7-115.7-48.1-117.4-111.3c-1.7-63.1,48.1-115.7,111.3-117.4c2-0.1,4.1-0.1,6.1,0
			c25.8-0.1,50.8,8.8,70.8,25.2v-19.4h55.6V758.6z M860.7,926.8h-42c-12.8,0-21.1-5.6-21.1-17.1v-102h63.1v-49.1h-62.9v-62.1h-56.5
			v62.1h-42.4v49.3h42.5v115.8c0,29.2,21.1,52.4,59,52.4h60.5L860.7,926.8z M988.1,981.7c64.6,0,101-30.2,101-72
			c0-29.7-21.5-51.9-66.7-61.4l-47.7-9.6c-27.7-5-36.4-10.1-36.4-20.1c0-13.2,13.3-21.2,37.9-21.2c26.6,0,46.2,7.1,51.8,31.2h55.9
			c-3.1-45.3-36.5-75.5-104.2-75.5c-58.4,0-99.5,23.7-99.5,69.5c0,31.7,22.6,52.4,71.3,62.5l53.3,12.1c21,4,26.6,9.5,26.6,18.1
			c0,13.6-16.1,22.2-41.6,22.2c-32.3,0-50.8-7-57.9-31.2h-56.5C883.8,951.5,918.3,981.7,988.1,981.7 M204.8,681.4h210.8v50.3H261.7
			v72.1h149.8v48.4H261.7v72.6h153.9v50.4H204.8V681.4z"/>
		<path class="st2" d="M1084.3,426.2v-39.5h-15c-21.3-0.9-41.4,9.9-52.5,28.2v-26.5h-42.9v214.5h43.3v-122
			c0-33.2,20.6-54.7,48.9-54.7H1084.3z M773.1,476.2c7.3-36.8,43-60.8,79.8-53.5c27,5.3,48.1,26.5,53.5,53.5H773.1z M840.9,384.2
			c-61.5-0.5-111.8,48.9-112.3,110.4c0,0.4,0,0.7,0,1.1c0,64,50.6,111.9,116.2,111.9c37,0.7,72-16.3,94.3-45.8L907.8,539
			c-14.5,20.3-38,32.1-62.9,31.6c-36,0.5-66.9-25.5-72.6-61h177.3v-14c0-63.9-46.2-111.4-109.3-111.4 M593.6,570.6
			c-41.1-0.3-74.3-33.8-74-75s33.8-74.3,75-74c40.9,0.3,74,33.5,74,74.5c-0.1,41.2-33.6,74.6-74.8,74.5
			C593.7,570.6,593.6,570.6,593.6,570.6 M476.1,602.9H519v-27c20.7,20.7,48.8,32.3,78,32.3c61.9,1.7,113.5-47.2,115.1-109.1
			c1.7-61.9-47.2-113.5-109.1-115.1c-2-0.1-4-0.1-6,0c-29.1,0-57.1,11.6-77.6,32.3V308.4h-43.3V602.9z M323.5,568.4
			c41.6,0,73.7-31.6,73.7-78.2V308.4h45v294.5h-44.6v-27.4c-20.9,21.1-49.5,32.7-79.2,32.3c-64.6,0-113.6-45.9-113.6-115.3V308.4
			h45.4v181.8c0,47.5,31.7,78.2,73.8,78.2"/>
	</g>
</g>
</svg>
